<?xml version="1.0" encoding="utf-8"?>
<!-- Generator: Adobe Illustrator 16.0.0, SVG Export Plug-In . SVG Version: 6.00 Build 0)  -->
<!DOCTYPE svg PUBLIC "-//W3C//DTD SVG 1.1//EN" "http://www.w3.org/Graphics/SVG/1.1/DTD/svg11.dtd">
<svg version="1.1" id="Capa_1" xmlns="http://www.w3.org/2000/svg" xmlns:xlink="http://www.w3.org/1999/xlink" x="0px" y="0px"
	 width="1654.871px" height="432.799px" viewBox="0 0 1654.871 432.799" enable-background="new 0 0 1654.871 432.799"
	 xml:space="preserve">
<g>
	<path fill="#1A9EDA" d="M566.893,0h128.276L555.396,205.123l152.479,226.904H571.129l-81.081-144.009l-88.342,144.009H272.221
		L566.893,0z"/>
</g>
<path fill="#E30614" d="M305.462,1.857H237.72h-2.551l-67.741,0L6.33,432.026h118.187l30.954-82.258h79.699h2.551h68.001
	l83.759-122.803L305.462,1.857z M193.363,245.333l43.062-123.537l46.944,123.537H193.363z"/>
<polygon fill="#B2B2B2" points="308.527,2.265 412.281,154.529 426.976,174.981 490.811,81.393 436.838,2.265 "/>
<g>
	<path d="M838.099-4.29l52.819,141.251h-32.245l-10.689-31.452h-52.837l-11.08,31.452h-31.254L806.227-4.29H838.099z M839.851,82.37
		l-17.796-51.854h-0.378L803.266,82.37H839.851z"/>
	<path d="M951.663,34.685v18.79h-20.574v50.656c0,4.734,0.795,7.917,2.37,9.491c1.576,1.593,4.746,2.382,9.499,2.382
		c1.578,0,3.105-0.059,4.55-0.205c1.43-0.134,2.842-0.319,4.155-0.584v21.748c-2.366,0.4-5.025,0.664-7.906,0.796
		c-2.922,0.132-5.746,0.203-8.532,0.203c-4.348,0-8.48-0.295-12.348-0.896c-3.899-0.596-7.327-1.741-10.295-3.456
		c-2.99-1.718-5.309-4.163-7.033-7.333c-1.697-3.146-2.58-7.308-2.58-12.458V53.475h-17.008v-18.79h17.008V4.017h28.12v30.668
		H951.663z"/>
	<path d="M997.156-4.29v141.251h-28.09V-4.29H997.156z"/>
	<path d="M1013.372,66.131c0.405-6.589,2.048-12.055,4.955-16.424c2.893-4.338,6.59-7.837,11.076-10.484
		c4.491-2.631,9.536-4.51,15.137-5.642c5.622-1.119,11.253-1.689,16.949-1.689c5.13,0,10.338,0.386,15.616,1.103
		c5.249,0.733,10.076,2.138,14.416,4.25c4.381,2.128,7.92,5.06,10.679,8.809c2.786,3.765,4.155,8.736,4.155,14.94v53.218
		c0,4.618,0.279,9.03,0.83,13.256c0.501,4.223,1.434,7.4,2.761,9.493h-28.498c-0.527-1.565-0.973-3.19-1.286-4.833
		c-0.325-1.661-0.561-3.346-0.679-5.057c-4.521,4.62-9.789,7.859-15.859,9.705c-6.072,1.844-12.244,2.77-18.59,2.77
		c-4.86,0-9.417-0.605-13.636-1.788c-4.247-1.191-7.941-3.035-11.108-5.538c-3.164-2.493-5.631-5.678-7.39-9.489
		c-1.814-3.836-2.691-8.386-2.691-13.663c0-5.789,1.021-10.582,3.078-14.332c2.048-3.768,4.687-6.77,7.91-9.015
		c3.232-2.227,6.92-3.925,11.091-5.044c4.129-1.112,8.326-2.005,12.565-2.688c4.195-0.643,8.354-1.166,12.463-1.564
		c4.078-0.395,7.709-0.979,10.872-1.775c3.142-0.799,5.664-1.946,7.519-3.468c1.844-1.508,2.699-3.724,2.559-6.629
		c0-3.031-0.486-5.437-1.448-7.224c-1.024-1.777-2.323-3.169-4.004-4.148c-1.634-1.003-3.54-1.644-5.738-1.983
		c-2.134-0.335-4.52-0.494-7.009-0.494c-5.535,0-9.867,1.191-13.038,3.558c-3.193,2.375-5.018,6.333-5.545,11.869H1013.372z
		 M1078.266,86.905c-1.16,1.062-2.653,1.889-4.446,2.481c-1.781,0.584-3.683,1.099-5.747,1.494c-2.015,0.379-4.161,0.717-6.414,0.98
		c-2.227,0.254-4.479,0.592-6.742,0.988c-2.08,0.393-4.192,0.919-6.218,1.582c-2.053,0.656-3.845,1.548-5.327,2.679
		c-1.541,1.112-2.757,2.533-3.676,4.25c-0.911,1.704-1.38,3.89-1.38,6.526c0,2.507,0.469,4.616,1.38,6.329
		c0.919,1.731,2.168,3.066,3.761,4.06c1.578,1.001,3.421,1.685,5.53,2.085c2.109,0.395,4.276,0.589,6.545,0.589
		c5.538,0,9.812-0.925,12.876-2.782c3.008-1.839,5.276-4.05,6.714-6.624c1.431-2.576,2.345-5.17,2.658-7.824
		c0.325-2.629,0.486-4.727,0.486-6.313V86.905z"/>
	<path d="M1150.104,34.685v14.246h0.586c3.565-5.933,8.178-10.265,13.834-12.96c5.682-2.712,11.489-4.079,17.415-4.079
		c7.536,0,13.72,1.043,18.494,3.081c4.841,2.052,8.621,4.883,11.378,8.508c2.811,3.633,4.717,8.057,5.853,13.256
		c1.116,5.21,1.675,10.987,1.675,17.316v62.909h-28.075V79.198c0-8.439-1.331-14.745-3.956-18.908
		c-2.647-4.146-7.338-6.214-14.078-6.214c-7.654,0-13.192,2.271-16.61,6.811c-3.433,4.55-5.14,12.048-5.14,22.461v53.613h-28.084
		V34.685H1150.104z"/>
	<path d="M1292.128,34.685v18.79h-20.566v50.656c0,4.734,0.814,7.917,2.39,9.491c1.596,1.593,4.756,2.382,9.483,2.382
		c1.573,0,3.104-0.059,4.568-0.205c1.434-0.134,2.839-0.319,4.125-0.584v21.748c-2.329,0.4-4.978,0.664-7.883,0.796
		c-2.898,0.132-5.741,0.203-8.535,0.203c-4.333,0-8.458-0.295-12.326-0.896c-3.894-0.596-7.341-1.741-10.287-3.456
		c-2.979-1.718-5.31-4.163-7.047-7.333c-1.699-3.146-2.573-7.308-2.573-12.458V53.475h-17.01v-18.79h17.01V4.017h28.085v30.668
		H1292.128z"/>
	<path d="M1305.59,18.851V-4.29h28.111v23.141H1305.59z M1333.701,34.685v102.277h-28.111V34.685H1333.701z"/>
	<path d="M1374.738,111.542c1.277,2.175,2.921,3.963,4.879,5.341c1.963,1.39,4.247,2.4,6.828,3.075
		c2.553,0.65,5.225,0.989,8.003,0.989c1.964,0,4.04-0.239,6.208-0.695c2.209-0.47,4.174-1.2,5.951-2.177
		c1.754-0.989,3.26-2.305,4.469-3.96c1.168-1.645,1.754-3.724,1.754-6.231c0-4.22-2.785-7.389-8.38-9.498
		c-5.63-2.113-13.439-4.22-23.454-6.336c-4.089-0.917-8.094-2.008-11.998-3.256c-3.872-1.251-7.314-2.892-10.371-4.946
		c-3.024-2.052-5.486-4.602-7.335-7.717c-1.803-3.099-2.758-6.902-2.758-11.368c0-6.611,1.302-12.001,3.843-16.248
		c2.572-4.208,5.979-7.531,10.202-9.975c4.218-2.454,8.967-4.17,14.244-5.151c5.278-0.992,10.706-1.497,16.219-1.497
		c5.557,0,10.933,0.55,16.123,1.601c5.222,1.058,9.879,2.837,13.942,5.354c4.107,2.489,7.515,5.819,10.213,9.983
		c2.692,4.146,4.31,9.394,4.841,15.724h-26.72c-0.365-5.407-2.423-9.066-6.121-10.994c-3.683-1.907-8.026-2.855-13.045-2.855
		c-1.585,0-3.304,0.107-5.158,0.304c-1.84,0.19-3.515,0.618-5.037,1.278c-1.534,0.662-2.806,1.607-3.846,2.873
		c-1.083,1.259-1.615,2.935-1.615,5.047c0,2.503,0.94,4.557,2.792,6.139c1.847,1.567,4.251,2.854,7.208,3.851
		c2.968,0.986,6.363,1.878,10.203,2.666c3.816,0.78,7.712,1.643,11.673,2.585c4.07,0.921,8.094,2.037,11.953,3.356
		c3.905,1.314,7.36,3.075,10.383,5.243c3.047,2.159,5.513,4.888,7.33,8.108c1.84,3.244,2.781,7.227,2.781,11.976
		c0,6.729-1.383,12.375-4.082,16.913c-2.692,4.55-6.209,8.208-10.579,10.977c-4.34,2.777-9.316,4.727-14.914,5.841
		c-5.635,1.132-11.319,1.685-17.123,1.685c-5.917,0-11.751-0.605-17.421-1.788c-5.656-1.191-10.72-3.167-15.114-5.925
		c-4.436-2.788-8.067-6.434-10.888-10.996c-2.841-4.539-4.403-10.25-4.649-17.119h26.705
		C1372.877,106.769,1373.493,109.363,1374.738,111.542z"/>
	<path d="M864.067,285.572c-10.699,9.288-25.446,13.945-44.316,13.945c-19.118,0-33.922-4.617-44.423-13.845
		c-10.486-9.229-15.704-23.489-15.704-42.744V155.08h31.039v87.848c0,3.837,0.325,7.575,0.995,11.267
		c0.646,3.724,2.057,6.963,4.161,9.804c2.117,2.854,5.017,5.154,8.796,6.917c3.751,1.803,8.806,2.677,15.136,2.677
		c11.075,0,18.723-2.461,22.945-7.422c4.225-4.934,6.342-12.691,6.342-23.242V155.08h31.038v87.848
		C880.076,262.059,874.744,276.271,864.067,285.572z"/>
	<path d="M921.852,194.057v14.251h0.594c3.563-5.94,8.167-10.25,13.834-12.979c5.675-2.697,11.482-4.025,17.441-4.025
		c7.494,0,13.656,1.003,18.468,3.046c4.823,2.054,8.617,4.891,11.36,8.52c2.803,3.632,4.72,8.045,5.837,13.248
		c1.15,5.21,1.715,10.977,1.715,17.321v62.916h-28.089v-57.778c0-8.423-1.316-14.736-3.965-18.879
		c-2.632-4.174-7.322-6.249-14.068-6.249c-7.614,0-13.197,2.29-16.623,6.823c-3.433,4.555-5.132,12.047-5.132,22.46v53.623h-28.081
		V194.057H921.852z"/>
	<path d="M1008.506,178.224V155.08h28.084v23.144H1008.506z M1036.59,194.057v102.296h-28.084V194.057H1036.59z"/>
	<path d="M1083.291,296.354l-35.034-102.296h29.489l21.582,69.843h0.383l21.573-69.843h27.878l-34.618,102.296H1083.291z"/>
	<path d="M1182.237,271.817c4.191,4.089,10.253,6.146,18.177,6.146c5.683,0,10.556-1.418,14.649-4.259
		c4.078-2.849,6.604-5.838,7.51-9.008h24.741c-3.963,12.265-10.029,21.032-18.2,26.31c-8.191,5.287-18.099,7.909-29.681,7.909
		c-8.046,0-15.298-1.27-21.777-3.846c-6.444-2.564-11.931-6.239-16.451-10.967c-4.443-4.762-7.91-10.437-10.365-17.033
		c-2.437-6.598-3.639-13.855-3.639-21.758c0-7.647,1.254-14.778,3.75-21.363c2.496-6.599,6.062-12.305,10.696-17.127
		c4.612-4.808,10.124-8.613,16.5-11.371c6.394-2.766,13.495-4.146,21.286-4.146c8.706,0,16.278,1.669,22.765,5.039
		c6.444,3.359,11.747,7.872,15.909,13.548c4.123,5.669,7.15,12.146,9.009,19.386c1.839,7.264,2.485,14.833,1.951,22.761h-73.781
		C1175.666,261.132,1177.985,267.741,1182.237,271.817z M1213.942,217.99c-3.333-3.676-8.439-5.525-15.299-5.525
		c-4.501,0-8.235,0.749-11.193,2.266c-2.961,1.522-5.34,3.403-7.112,5.651c-1.767,2.247-3.027,4.618-3.765,7.112
		c-0.723,2.518-1.151,4.749-1.287,6.742h45.694C1219.661,227.094,1217.332,221.71,1213.942,217.99z"/>
	<path d="M1287.664,194.057v19.003h0.39c1.324-3.169,3.109-6.108,5.344-8.813c2.267-2.703,4.807-5.007,7.746-6.92
		c2.872-1.908,5.97-3.385,9.287-4.461c3.278-1.049,6.708-1.562,10.295-1.562c1.83,0,3.864,0.317,6.117,0.979v26.12
		c-1.315-0.269-2.905-0.49-4.745-0.704c-1.843-0.185-3.64-0.29-5.347-0.29c-5.143,0-9.483,0.859-13.056,2.583
		c-3.559,1.718-6.419,4.034-8.595,7.019c-2.194,2.958-3.762,6.427-4.665,10.372c-0.943,3.966-1.382,8.263-1.382,12.867v46.104
		h-28.107V194.057H1287.664z"/>
	<path d="M1360.762,270.916c1.253,2.188,2.883,3.967,4.859,5.355c1.973,1.399,4.251,2.41,6.813,3.069
		c2.582,0.653,5.284,0.994,8.043,0.994c1.958,0,4.066-0.234,6.209-0.706c2.168-0.446,4.155-1.187,5.951-2.181
		c1.777-0.967,3.245-2.29,4.438-3.951c1.177-1.647,1.774-3.728,1.774-6.225c0-4.221-2.791-7.381-8.381-9.497
		c-5.605-2.107-13.429-4.216-23.451-6.342c-4.092-0.929-8.096-2.013-12.004-3.259c-3.865-1.248-7.32-2.9-10.365-4.958
		c-3.032-2.037-5.461-4.592-7.309-7.704c-1.869-3.093-2.776-6.88-2.776-11.375c0-6.597,1.275-12.01,3.86-16.231
		c2.556-4.218,5.938-7.544,10.163-9.994c4.229-2.432,8.974-4.146,14.258-5.128c5.271-0.999,10.707-1.48,16.22-1.48
		c5.538,0,10.933,0.513,16.146,1.562c5.184,1.077,9.849,2.85,13.926,5.342c4.107,2.513,7.511,5.845,10.205,9.993
		c2.685,4.159,4.299,9.406,4.828,15.748h-26.666c-0.429-5.417-2.471-9.08-6.162-10.998c-3.694-1.904-8.037-2.861-13.066-2.861
		c-1.564,0-3.26,0.089-5.147,0.294c-1.828,0.193-3.536,0.638-5.029,1.297c-1.53,0.645-2.817,1.604-3.882,2.85
		c-1.019,1.269-1.578,2.95-1.578,5.046c0,2.522,0.947,4.56,2.787,6.134c1.817,1.587,4.248,2.887,7.212,3.868
		c2.948,0.979,6.353,1.866,10.21,2.664c3.801,0.783,7.698,1.675,11.662,2.575c4.089,0.905,8.052,2.054,11.954,3.365
		c3.894,1.311,7.373,3.06,10.416,5.245c3.004,2.172,5.449,4.882,7.29,8.098c1.877,3.227,2.783,7.228,2.783,11.977
		c0,6.734-1.364,12.379-4.07,16.911c-2.688,4.568-6.21,8.215-10.561,10.991c-4.351,2.762-9.355,4.734-14.937,5.837
		c-5.604,1.128-11.327,1.674-17.127,1.674c-5.918,0-11.725-0.575-17.414-1.77c-5.656-1.186-10.696-3.167-15.125-5.937
		c-4.436-2.776-8.074-6.434-10.902-10.988c-2.807-4.551-4.369-10.254-4.632-17.104h26.702
		C1358.888,266.148,1359.5,268.755,1360.762,270.916z"/>
	<path d="M1439.426,178.224V155.08h28.075v23.144H1439.426z M1467.501,194.057v102.296h-28.075V194.057H1467.501z"/>
	<path d="M1579.756,194.057v18.786H1524.5v50.66c0,4.747,0.786,7.916,2.371,9.496c1.573,1.585,4.749,2.378,9.506,2.378
		c1.573,0,3.075-0.07,4.531-0.19c1.456-0.131,2.854-0.337,4.155-0.603v21.77c-2.359,0.402-5.004,0.66-7.914,0.793
		c-2.904,0.131-5.74,0.184-8.494,0.184c-4.369,0-8.479-0.276-12.378-0.877c-3.885-0.607-7.321-1.745-10.271-3.456
		c-2.973-1.718-5.317-4.167-7.05-7.326c-1.703-3.169-2.548-7.337-2.548-12.463v-60.365h-17.009v-18.786h17.009v-30.662h28.092
		v30.662H1579.756z"/>
	<path d="M1599.475,326.826c-5.42,3.566-12.93,5.334-22.539,5.334c-2.932,0-5.774-0.104-8.621-0.284
		c-2.844-0.21-5.715-0.446-8.609-0.693v-23.159c2.646,0.266,5.368,0.52,8.119,0.789c2.75,0.263,5.539,0.346,8.303,0.202
		c3.684-0.398,6.438-1.843,8.23-4.361c1.762-2.497,2.654-5.265,2.654-8.3c0-2.242-0.402-4.355-1.193-6.338l-35.825-95.958h29.906
		l23.122,70.052h0.413l22.37-70.052h29.066l-42.73,114.958C1609.098,317.326,1604.885,323.253,1599.475,326.826z"/>
</g>
<g>
	<g>
		<path fill="#9D9D9C" d="M759.942,353.268h63.381v16.597h-42.662v13.924h38.985v16.04h-38.985v15.149h43.775v17.822h-64.494
			V353.268z"/>
		<path fill="#9D9D9C" d="M878.787,391.028l-25.953-37.761h24.395l13.366,24.728l14.146-24.728h23.614l-25.73,37.761l28.07,41.771
			h-25.175l-14.926-26.511l-16.263,26.511h-23.838L878.787,391.028z"/>
		<path fill="#9D9D9C" d="M1022.249,371.09h-23.726v61.709h-20.719V371.09h-23.726v-17.822h68.17V371.09z"/>
		<path fill="#9D9D9C" d="M1053.654,353.268h63.381v16.597h-42.662v13.924h38.986v16.04h-38.986v15.149h43.775v17.822h-64.494
			V353.268z"/>
		<path fill="#9D9D9C" d="M1152.004,353.268h21.275l27.624,49.011h0.223v-49.011h19.493v79.532h-21.275l-27.624-49.568h-0.223
			v49.568h-19.493V353.268z"/>
		<path fill="#9D9D9C" d="M1273.188,406.066c0.445,9.356,6.238,12.364,15.037,12.364c6.238,0,12.699-2.228,12.699-8.131
			c0-7.018-11.362-8.354-22.835-11.584c-11.362-3.23-23.28-8.354-23.28-22.946c0-17.377,17.488-24.171,32.414-24.171
			c15.817,0,31.746,7.686,31.857,25.62h-20.719c0.334-7.24-6.46-9.58-12.81-9.58c-4.456,0-10.025,1.56-10.025,6.794
			c0,6.126,11.474,7.241,23.058,10.471c11.474,3.23,23.058,8.577,23.058,22.946c0,20.162-17.153,26.622-34.642,26.622
			c-18.268,0-34.42-8.02-34.531-28.404H1273.188z"/>
		<path fill="#9D9D9C" d="M1353.604,353.268h20.719v79.532h-20.719V353.268z"/>
		<path fill="#9D9D9C" d="M1447.164,351.597c25.063,0,39.209,18.379,39.209,41.437c0,23.058-14.146,41.437-39.209,41.437
			s-39.209-18.379-39.209-41.437C1407.955,369.976,1422.102,351.597,1447.164,351.597z M1447.164,416.648
			c13.367,0,18.491-11.807,18.491-23.615c0-11.807-5.124-23.614-18.491-23.614c-13.366,0-18.49,11.807-18.49,23.614
			C1428.674,404.841,1433.798,416.648,1447.164,416.648z"/>
		<path fill="#9D9D9C" d="M1519.672,353.268h21.275l27.624,49.011h0.223v-49.011h19.493v79.532h-21.275l-27.624-49.568h-0.223
			v49.568h-19.493V353.268z"/>
	</g>
</g>
</svg>
